<?xml version="1.0" encoding="iso-8859-1"?>
<!-- Generator: Adobe Illustrator 19.0.0, SVG Export Plug-In . SVG Version: 6.00 Build 0)  -->
<svg version="1.1" id="Capa_1" xmlns="http://www.w3.org/2000/svg" xmlns:xlink="http://www.w3.org/1999/xlink" x="0px" y="0px"
	 viewBox="0 0 512 512" style="enable-background:new 0 0 512 512;" xml:space="preserve">
<g>
	<g>
		<path d="M500.48,123.774L388.235,11.53C380.8,4.094,370.914,0,360.4,0c-10.515,0-20.4,4.094-27.834,11.53
			c-4.996,4.996-8.484,11.097-10.234,17.751c-7.061-5.905-15.885-9.119-25.201-9.119c-10.516,0-20.401,4.094-27.835,11.53
			c-5.169,5.169-8.725,11.523-10.412,18.449c-6.391-4.252-13.889-6.533-21.74-6.533c-10.515,0-20.4,4.094-27.834,11.53
			c-7.436,7.435-11.531,17.32-11.531,27.836c0,7.859,2.287,15.366,6.548,21.762c-6.771,1.648-13.187,5.11-18.465,10.388
			c-14.504,14.505-15.301,37.606-2.39,53.058c-6.515,1.711-12.675,5.116-17.772,10.214c-15.348,15.349-15.348,40.321,0,55.669
			l24.115,24.115L13.245,434.75c-17.648,17.65-17.648,46.365,0,64.014c0,0,0,0,0.001,0C22.069,507.587,33.66,512,45.253,512
			c11.592,0,23.182-4.413,32.008-13.236l176.572-176.572l24.115,24.115c7.435,7.435,17.321,11.53,27.836,11.53
			s20.4-4.094,27.834-11.53c4.996-4.996,8.484-11.097,10.234-17.751c7.061,5.905,15.885,9.119,25.202,9.119
			c10.515,0,20.4-4.094,27.834-11.53c5.172-5.171,8.728-11.528,10.414-18.458c15.279,10.126,36.121,8.464,49.573-4.989
			c13.457-13.458,15.115-34.315,4.973-49.595c6.774-1.648,13.193-5.111,18.473-10.39c14.504-14.505,15.301-37.606,2.39-53.057
			c6.515-1.711,12.675-5.116,17.772-10.214C515.828,164.095,515.828,139.122,500.48,123.774z M63.304,484.809
			c-9.952,9.954-26.148,9.955-36.104,0c-9.953-9.954-9.953-26.15,0-36.104l176.572-176.572l36.104,36.104L63.304,484.809z
			 M486.526,165.49c-7.655,7.653-20.109,7.653-27.764,0c-3.852-3.852-10.101-3.852-13.954,0c-3.853,3.854-3.853,10.101,0,13.955
			l21.555,21.554c7.653,7.654,7.653,20.108,0.001,27.762c-7.655,7.653-20.11,7.653-27.763,0L327.553,117.71
			c-3.853-3.851-10.101-3.852-13.955,0c-3.853,3.853-3.853,10.101,0,13.955l111.049,111.05c0.003,0.003,0.006,0.005,0.008,0.008
			c0.012,0.012,0.023,0.023,0.035,0.035l18.229,18.228c7.654,7.653,7.654,20.107,0.001,27.761c-7.656,7.654-20.109,7.654-27.763,0
			L396.93,270.52c-0.015-0.016-0.029-0.03-0.044-0.044c-3.852-3.852-10.101-3.852-13.954,0c-3.853,3.853-3.853,10.101,0,13.955
			l0.03,0.03c3.689,3.704,5.72,8.62,5.72,13.85c0,5.243-2.042,10.174-5.75,13.881c-3.707,3.707-8.637,5.749-13.879,5.749
			c-5.243,0-10.174-2.042-13.88-5.75l-21.555-21.554l-56.122-56.122c-3.854-3.852-10.1-3.852-13.955,0
			c-3.853,3.853-3.853,10.101,0,13.955l56.122,56.122c3.708,3.707,5.75,8.637,5.75,13.88c0,5.242-2.042,10.173-5.75,13.88
			c-3.707,3.707-8.637,5.749-13.879,5.749c-5.243,0-10.173-2.042-13.88-5.75L179.656,220.107c-7.654-7.653-7.654-20.107,0-27.761
			c3.827-3.827,8.854-5.74,13.88-5.74c5.015,0,10.029,1.903,13.853,5.711l0.029,0.029c3.852,3.852,10.101,3.852,13.954,0
			c3.853-3.854,3.853-10.101,0-13.955l-21.555-21.554c-7.654-7.654-7.654-20.108-0.001-27.762c7.656-7.655,20.108-7.653,27.762,0
			l77.677,77.676c1.927,1.926,4.452,2.89,6.977,2.89c2.525,0,5.05-0.964,6.977-2.89c3.853-3.853,3.853-10.101,0-13.955
			l-77.677-77.677l-18.27-18.27c-3.707-3.707-5.749-8.637-5.749-13.879c0-5.243,2.042-10.174,5.75-13.881
			c3.707-3.707,8.637-5.749,13.879-5.749c5.243,0,10.173,2.042,13.88,5.75l18.27,18.27c3.854,3.852,10.1,3.852,13.955,0
			c1.926-1.927,2.89-4.452,2.89-6.977s-0.964-5.05-2.89-6.977c-3.708-3.708-5.75-8.637-5.75-13.88s2.042-10.173,5.75-13.88
			c3.707-3.707,8.637-5.749,13.88-5.749c5.242,0,10.173,2.042,13.879,5.75L332.563,67.2l39.436,39.436
			c1.927,1.926,4.452,2.89,6.977,2.89c2.525,0,5.05-0.964,6.977-2.89c3.853-3.853,3.853-10.101,0-13.955L346.52,53.245
			c-0.002-0.002-0.004-0.003-0.005-0.005c-3.704-3.706-5.745-8.634-5.745-13.876s2.042-10.173,5.75-13.88
			c3.707-3.707,8.637-5.749,13.879-5.749c5.243,0,10.173,2.042,13.88,5.75l112.245,112.243
			C494.178,145.382,494.178,157.836,486.526,165.49z"/>
	</g>
</g>
<g>
	<g>
		<path d="M407.303,114.027c-1.835-1.835-4.38-2.891-6.976-2.891c-2.605,0-5.141,1.056-6.975,2.891
			c-1.835,1.835-2.892,4.381-2.892,6.976c0,2.605,1.056,5.141,2.892,6.976c1.834,1.844,4.38,2.891,6.975,2.891
			c2.596,0,5.141-1.047,6.976-2.891c1.835-1.835,2.891-4.372,2.891-6.976C410.194,118.408,409.139,115.862,407.303,114.027z"/>
	</g>
</g>
<g>
</g>
<g>
</g>
<g>
</g>
<g>
</g>
<g>
</g>
<g>
</g>
<g>
</g>
<g>
</g>
<g>
</g>
<g>
</g>
<g>
</g>
<g>
</g>
<g>
</g>
<g>
</g>
<g>
</g>
</svg>
